<svg viewBox="0 0 500 500" xmlns="http://www.w3.org/2000/svg">
  <!-- Background Circle -->
  <circle cx="250" cy="250" r="230" fill="#E3F2FD" opacity="0.3"/>
  
  <!-- Main Refrigerator -->
  <g transform="translate(150, 80)">
    <!-- Fridge Body -->
    <rect x="0" y="0" width="200" height="300" rx="15" fill="#F5F5F5" stroke="#E0E0E0" stroke-width="2"/>
    
    <!-- Top Door (Freezer) -->
    <rect x="10" y="10" width="180" height="100" rx="10" fill="#FFFFFF" stroke="#E0E0E0" stroke-width="2"/>
    
    <!-- Handle -->
    <rect x="20" y="50" width="8" height="40" rx="4" fill="#9E9E9E"/>
    
    <!-- Bottom Door (Fridge) -->
    <rect x="10" y="120" width="180" height="170" rx="10" fill="#FFFFFF" stroke="#E0E0E0" stroke-width="2"/>
    
    <!-- Handle -->
    <rect x="20" y="160" width="8" height="60" rx="4" fill="#9E9E9E"/>
    
    <!-- Display Panel -->
    <rect x="150" y="30" width="30" height="20" rx="3" fill="#2196F3"/>
    
    <!-- Brand Badge -->
    <circle cx="100" cy="250" r="20" fill="#4CAF50" opacity="0.9"/>
    <text x="100" y="256" text-anchor="middle" fill="white" font-family="Arial" font-size="16" font-weight="bold">✓</text>
  </g>
  
  <!-- Floating Elements -->
  <!-- Washer Icon -->
  <g transform="translate(50, 200)">
    <circle cx="40" cy="40" r="35" fill="#FFFFFF" stroke="#E0E0E0" stroke-width="2"/>
    <circle cx="40" cy="40" r="25" fill="#E3F2FD" stroke="#2196F3" stroke-width="2"/>
    <circle cx="40" cy="40" r="15" fill="#2196F3" opacity="0.3"/>
  </g>
  
  <!-- Stove Icon -->
  <g transform="translate(370, 150)">
    <rect x="0" y="0" width="70" height="70" rx="8" fill="#FFFFFF" stroke="#E0E0E0" stroke-width="2"/>
    <circle cx="20" cy="20" r="8" fill="#FF6B35"/>
    <circle cx="50" cy="20" r="8" fill="#FFD600"/>
    <circle cx="20" cy="50" r="8" fill="#E91E63"/>
    <circle cx="50" cy="50" r="8" fill="#7B1FA2"/>
  </g>
  
  <!-- Dishwasher Icon -->
  <g transform="translate(60, 350)">
    <rect x="0" y="0" width="80" height="80" rx="8" fill="#FFFFFF" stroke="#E0E0E0" stroke-width="2"/>
    <rect x="10" y="10" width="60" height="40" rx="5" fill="#E3F2FD"/>
    <rect x="10" y="55" width="20" height="5" rx="2" fill="#2196F3"/>
    <rect x="35" y="55" width="20" height="5" rx="2" fill="#4CAF50"/>
  </g>
  
  <!-- Service Stars -->
  <g transform="translate(320, 320)">
    <path d="M30,15 L35,25 L45,25 L37,32 L40,42 L30,35 L20,42 L23,32 L15,25 L25,25 Z" fill="#FFD600"/>
    <path d="M60,15 L65,25 L75,25 L67,32 L70,42 L60,35 L50,42 L53,32 L45,25 L55,25 Z" fill="#FFD600"/>
    <path d="M90,15 L95,25 L105,25 L97,32 L100,42 L90,35 L80,42 L83,32 L75,25 L85,25 Z" fill="#FFD600"/>
  </g>
</svg>